<svg xmlns="http://www.w3.org/2000/svg" xmlns:xlink="http://www.w3.org/1999/xlink" width="500" zoomAndPan="magnify" viewBox="0 0 375 374.999991" height="500" preserveAspectRatio="xMidYMid meet" version="1.0"><defs><clipPath id="d3fb269e2a"><path d="M 19.46875 145.40625 L 355.316406 145.40625 L 355.316406 255.777344 L 19.46875 255.777344 Z M 19.46875 145.40625 " clip-rule="nonzero"/></clipPath><clipPath id="2f438f8816"><path d="M 187.496094 255.777344 L 19.675781 145.40625 L 355.316406 145.40625 Z M 187.496094 255.777344 " clip-rule="nonzero"/></clipPath><clipPath id="eb75dc8860"><path d="M 0.46875 0.40625 L 336.316406 0.40625 L 336.316406 110.777344 L 0.46875 110.777344 Z M 0.46875 0.40625 " clip-rule="nonzero"/></clipPath><clipPath id="e42a0455f4"><path d="M 168.496094 110.777344 L 0.675781 0.40625 L 336.316406 0.40625 Z M 168.496094 110.777344 " clip-rule="nonzero"/></clipPath><clipPath id="b64c4a1b41"><rect x="0" width="337" y="0" height="111"/></clipPath><clipPath id="430015f558"><path d="M 19.703125 145.210938 L 90.953125 145.210938 L 90.953125 216.460938 L 19.703125 216.460938 Z M 19.703125 145.210938 " clip-rule="nonzero"/></clipPath><clipPath id="882d32f7d1"><path d="M 284.0625 145.414062 L 355.3125 145.414062 L 355.3125 216.664062 L 284.0625 216.664062 Z M 284.0625 145.414062 " clip-rule="nonzero"/></clipPath><clipPath id="333676fc03"><path d="M 146.246094 144.433594 L 228.589844 144.433594 L 228.589844 251.570312 L 146.246094 251.570312 Z M 146.246094 144.433594 " clip-rule="nonzero"/></clipPath><clipPath id="3d131045ae"><path d="M 0.246094 0.433594 L 82.589844 0.433594 L 82.589844 107.570312 L 0.246094 107.570312 Z M 0.246094 0.433594 " clip-rule="nonzero"/></clipPath><clipPath id="c917c3f5c8"><rect x="0" width="83" y="0" height="108"/></clipPath><clipPath id="0418776bf0"><path d="M 146.085938 250.816406 L 228.585938 250.816406 L 228.585938 333.316406 L 146.085938 333.316406 Z M 146.085938 250.816406 " clip-rule="nonzero"/></clipPath><clipPath id="db193be0b0"><path d="M 146.082031 251.078125 L 228.582031 251.078125 L 228.582031 332.828125 L 146.082031 332.828125 Z M 146.082031 251.078125 " clip-rule="nonzero"/></clipPath><clipPath id="6bc3158cca"><path d="M 146.316406 73.015625 L 228.871094 73.015625 L 228.871094 145.148438 L 146.316406 145.148438 Z M 146.316406 73.015625 " clip-rule="nonzero"/></clipPath><clipPath id="8c4e3f03fe"><path d="M 187.535156 73.015625 L 228.753906 145.148438 L 146.316406 145.148438 Z M 187.535156 73.015625 " clip-rule="nonzero"/></clipPath><clipPath id="050ab3b6ad"><path d="M 0.316406 0.015625 L 82.871094 0.015625 L 82.871094 72.148438 L 0.316406 72.148438 Z M 0.316406 0.015625 " clip-rule="nonzero"/></clipPath><clipPath id="c2f1ec89af"><path d="M 41.535156 0.015625 L 82.753906 72.148438 L 0.316406 72.148438 Z M 41.535156 0.015625 " clip-rule="nonzero"/></clipPath><clipPath id="0e1ac5ad74"><rect x="0" width="83" y="0" height="73"/></clipPath></defs><rect x="-37.5" width="450" fill="#ffffff" y="-37.499999" height="449.999989" fill-opacity="1"/><rect x="-37.5" width="450" fill="#ffffff" y="-37.499999" height="449.999989" fill-opacity="1"/><g clip-path="url(#d3fb269e2a)"><g clip-path="url(#2f438f8816)"><g transform="matrix(1, 0, 0, 1, 19, 145)"><g clip-path="url(#b64c4a1b41)"><g clip-path="url(#eb75dc8860)"><g clip-path="url(#e42a0455f4)"><path fill="#01d39e" d="M 336.316406 110.777344 L 0.46875 110.777344 L 0.46875 0.40625 L 336.316406 0.40625 Z M 336.316406 110.777344 " fill-opacity="1" fill-rule="nonzero"/></g></g></g></g></g></g><g clip-path="url(#430015f558)"><path fill="#33ffcc" d="M 19.734375 145.410156 L 90.898438 145.410156 L 90.898438 216.460938 Z M 19.734375 145.410156 " fill-opacity="1" fill-rule="nonzero"/></g><g clip-path="url(#882d32f7d1)"><path fill="#33ffcc" d="M 284.085938 216.808594 L 284.085938 145.464844 L 355.3125 145.464844 Z M 284.085938 216.808594 " fill-opacity="1" fill-rule="nonzero"/></g><g clip-path="url(#333676fc03)"><g transform="matrix(1, 0, 0, 1, 146, 144)"><g clip-path="url(#c917c3f5c8)"><g clip-path="url(#3d131045ae)"><path fill="#2b3c4d" d="M 0.246094 0.433594 L 82.589844 0.433594 L 82.589844 107.546875 L 0.246094 107.546875 Z M 0.246094 0.433594 " fill-opacity="1" fill-rule="nonzero"/></g></g></g></g><g clip-path="url(#0418776bf0)"><path fill="#000000" d="M 146.25 333.351562 L 146.25 250.886719 L 228.585938 250.886719 Z M 146.25 333.351562 " fill-opacity="1" fill-rule="nonzero"/></g><g clip-path="url(#db193be0b0)"><path fill="#35495e" d="M 146.378906 250.820312 L 228.519531 250.820312 L 228.519531 332.828125 Z M 146.378906 250.820312 " fill-opacity="1" fill-rule="nonzero"/></g><g clip-path="url(#6bc3158cca)"><g clip-path="url(#8c4e3f03fe)"><g transform="matrix(1, 0, 0, 1, 146, 73)"><g clip-path="url(#0e1ac5ad74)"><g clip-path="url(#050ab3b6ad)"><g clip-path="url(#c2f1ec89af)"><path fill="#202c39" d="M 0.316406 0.015625 L 82.871094 0.015625 L 82.871094 72.148438 L 0.316406 72.148438 Z M 0.316406 0.015625 " fill-opacity="1" fill-rule="nonzero"/></g></g></g></g></g></g></svg>